<svg width="330" height="171" viewBox="0 0 330 171" fill="none" xmlns="http://www.w3.org/2000/svg">
<g clip-path="url(#clip0_11_170)">
<path d="M72.4501 20.8149C70.8701 19.7899 69.8101 18.1399 69.5351 16.2799L69.0801 13.1049C69.0201 12.9699 68.9001 12.8749 68.7551 12.8449C68.6001 12.8399 68.4601 12.9499 68.4301 13.1049L67.9751 16.2799C67.6701 18.1299 66.6151 19.7699 65.0601 20.8149L64.6051 21.0749C64.5251 21.1349 64.4751 21.2299 64.4751 21.3349C64.4801 21.4549 64.5251 21.5699 64.6051 21.6599L65.0601 21.9199C66.6101 22.9399 67.6701 24.5599 67.9751 26.3899L68.4301 29.5649C68.4301 29.7599 68.5601 29.8249 68.7551 29.8249C68.9101 29.8299 69.0501 29.7199 69.0801 29.5649L69.5351 26.3899C69.8101 24.5449 70.8751 22.9149 72.4501 21.9199L72.8401 21.6599C72.9701 21.6049 73.0451 21.4749 73.0351 21.3349C73.0351 21.2049 72.9701 21.1399 72.8401 21.0749L72.4501 20.8149Z" fill="#91FFAD"/>
<path d="M132.85 20.34C131.605 19.55 130.77 18.26 130.555 16.8L130.225 14.375C130.16 14.245 130.095 14.115 129.965 14.115C129.82 14.115 129.705 14.23 129.705 14.375L129.375 16.8C129.14 18.25 128.31 19.53 127.08 20.34L126.75 20.535C126.685 20.535 126.62 20.665 126.62 20.73C126.62 20.795 126.685 20.925 126.75 20.925L127.08 21.12C128.305 21.925 129.14 23.21 129.375 24.66L129.705 27.085C129.705 27.215 129.835 27.28 129.965 27.28C130.095 27.28 130.16 27.215 130.225 27.085L130.555 24.66C130.765 23.2 131.605 21.91 132.85 21.12L133.18 20.925C133.245 20.925 133.245 20.795 133.245 20.73C133.245 20.665 133.245 20.535 133.18 20.535L132.85 20.34Z" fill="#FFF2A6"/>
<path d="M79.8051 34.9551C78.8701 34.3501 78.2451 33.3751 78.0801 32.2751L77.8101 30.4001C77.7751 30.3201 77.7051 30.2651 77.6201 30.2451C77.5301 30.2451 77.4451 30.3101 77.4301 30.4001L77.1601 32.2751C76.9801 33.3701 76.3551 34.3401 75.4351 34.9551L75.1651 35.1101C75.1151 35.1451 75.0901 35.2051 75.0901 35.2651C75.0951 35.3351 75.1201 35.4051 75.1651 35.4551L75.4351 35.6101C76.3501 36.2151 76.9751 37.1701 77.1601 38.2551L77.4301 40.1301C77.4301 40.2451 77.5051 40.2851 77.6201 40.2851C77.7101 40.2851 77.7951 40.2201 77.8101 40.1301L78.0801 38.2551C78.2451 37.1651 78.8701 36.2001 79.8051 35.6101L80.0351 35.4551C80.1101 35.4201 80.1551 35.3451 80.1501 35.2651C80.1501 35.1901 80.1101 35.1501 80.0351 35.1101L79.8051 34.9551Z" fill="white"/>
<mask id="mask0_11_170" style="mask-type:luminance" maskUnits="userSpaceOnUse" x="0" y="0" width="660" height="171">
<path d="M16 0H644C652.835 0 660 7.165 660 16V155C660 163.835 652.835 171 644 171H16C7.165 171 0 163.835 0 155V16C0 7.165 7.165 0 16 0Z" fill="white"/>
</mask>
<g mask="url(#mask0_11_170)">
<path d="M656.95 127.175V106.835C656.95 106.375 656.575 106 656.115 106H652.48V46.14H655.8C656.2 46.14 656.57 45.915 656.765 45.565C660.515 38.82 657.815 34.285 656.785 32.935C656.58 32.665 656.26 32.515 655.925 32.515H652.48V25.995H654.005C654.125 25.995 654.225 25.895 654.215 25.775C654.1 23.305 652.06 21.335 649.56 21.335C647.06 21.335 645.02 23.305 644.905 25.775C644.9 25.895 645 25.995 645.115 25.995H646.64V32.52H643.195C642.86 32.52 642.54 32.675 642.335 32.94C641.305 34.29 638.605 38.825 642.355 45.57C642.55 45.92 642.915 46.145 643.32 46.145H646.64V106H643.005C642.545 106 642.17 106.375 642.17 106.835V120.965H624.44C624.045 120.965 623.725 121.285 623.725 121.68V123.65C623.725 124.295 623.2 124.82 622.555 124.82H608.16C607.485 124.82 606.86 125.18 606.52 125.765L600.095 136.915C599.34 138.225 597.945 139.03 596.435 139.03H579.865L577.8 130.865C577.725 130.575 578.04 130.345 578.295 130.495L579.27 131.065C579.535 131.22 579.865 131.03 579.865 130.725V123.375C579.865 122.805 579.595 122.265 579.14 121.925L562.64 109.48L546.14 121.925C545.685 122.27 545.415 122.805 545.415 123.375V130.725C545.415 131.03 545.745 131.22 546.01 131.065L546.985 130.495C547.24 130.345 547.55 130.58 547.48 130.865L545.415 139.03C543.59 139.03 539.86 139.03 535.25 139.03C530.235 139.03 526.745 142.795 525.365 144.59C524.915 145.18 524.215 145.52 523.475 145.52H171.775C111.35 145.52 92.715 116.155 71.66 81.51C50.605 46.865 0 34.765 0 34.765V171H639.35H642.175H656.95H660V127.175H656.95Z" fill="#2727AF"/>
</g>
<path d="M40.1671 106.765C46.1608 103.363 49.8944 99.8019 52.2142 97.6053C52.2142 97.6004 60.3087 105.565 60.5427 106.187L60.5477 106.192C57.1376 109.38 46.564 118.141 33.0981 121.767C29.703 122.684 26.2332 120.602 25.4616 117.175C23.998 110.6 31.0172 108.927 34.8255 108.503C36.7072 108.299 38.5243 107.702 40.1671 106.765Z" fill="#698FFF"/>
<path d="M66.402 128.063C65.3865 132.695 64.8488 137.233 64.3609 142.936C63.9826 147.404 59.2882 150.143 55.2111 148.275L55.0717 148.216C52.6274 147.095 51.1141 144.654 51.1887 142.005C51.3331 136.73 52.1595 130.549 53.7923 124.96C53.8271 124.841 53.9516 124.766 54.0761 124.801L66.2327 127.789C66.3572 127.814 66.4269 127.939 66.402 128.063Z" fill="#4F6FE7"/>
<path d="M69.598 128.173C70.6733 132.795 71.2657 137.328 71.8183 143.016C72.2514 147.478 76.9806 150.163 81.0279 148.241L81.1672 148.171C83.5966 147.02 85.0801 144.565 84.9755 141.915C84.7615 136.64 83.8654 130.469 82.1629 124.9C82.128 124.781 81.9986 124.716 81.8791 124.741L69.7623 127.884C69.6378 127.919 69.5631 128.038 69.598 128.163V128.173Z" fill="#4F6FE7"/>
<path d="M52.7469 96.6091C49.1925 108.718 44.0301 123.78 54.9821 127.48C63.3504 130.305 74.2177 129.443 81.3265 126.713C88.4354 123.984 87.6189 115.795 85.6127 107.009C83.6065 98.2229 80.6893 89.0881 80.6893 89.0881L52.7469 96.6091Z" fill="url(#paint0_linear_11_170)"/>
<path d="M110.723 88.5601C108.502 86.0199 106.257 85.1184 103.624 87.813C100.866 85.7808 98.1677 87.7333 98.5361 91.1751C92.7813 95.603 86.6482 96.5544 81.4112 96.1609C81.4062 96.1609 81.8393 110.82 82.1828 111.392C95.0165 110.541 107.701 98.7559 107.701 98.7559C111.559 95.7674 112.918 91.0854 110.723 88.5601Z" fill="#698FFF"/>
<path d="M73.8692 59.4371C68.682 59.5566 63.3952 60.0298 58.3672 60.8815C46.33 62.9237 38.1161 73.7869 40.1173 85.1582C40.1322 85.2677 40.1571 85.3674 40.172 85.4769C41.4913 92.7141 48.3412 97.8344 56.1121 97.5156C62.8028 97.2467 70.2302 96.6838 77.1449 95.6678C85.3539 94.4574 91.2381 87.4593 90.6307 79.6394C90.4266 77.0145 90.113 74.3547 89.6899 71.7995C88.4752 64.4877 81.6999 59.2628 73.8692 59.4371Z" fill="#698FFF"/>
<path fill-rule="evenodd" clip-rule="evenodd" d="M59.2782 56.6628L60.1494 64.2685C60.2042 64.7467 60.6423 65.0954 61.1202 65.0356L67.0093 64.3632C67.4872 64.3084 67.8357 63.8701 67.776 63.3919L66.9048 55.7862C66.8699 55.4873 66.7306 55.2084 66.5016 55.0141L63.43 52.2498C62.9621 51.8264 62.2203 51.9111 61.8619 52.4291L59.4923 55.821C59.3181 56.0701 59.2434 56.3689 59.2782 56.6628Z" fill="#FF7700"/>
<path fill-rule="evenodd" clip-rule="evenodd" d="M62.6883 60.3785L60.3734 64.7616C60.5526 64.9609 60.8264 65.0704 61.1152 65.0406L67.0043 64.3681C67.2931 64.3333 67.5271 64.1639 67.6664 63.9298L64.4257 60.1842C63.9378 59.6214 63.0417 59.721 62.6883 60.3785Z" fill="#FF871D"/>
<path d="M71.4499 69.6229C66.8699 69.613 62.0262 70.126 58.0337 71.3762C55.5098 72.1681 53.7724 74.3946 53.8023 76.895C53.8172 78.0605 53.8919 79.236 54.0512 80.4164C54.6336 84.7747 58.7705 87.8528 63.4201 87.5241C65.6154 87.3697 67.9303 87.1455 70.1804 86.8218C75.059 86.1344 78.5139 81.826 77.802 77.2287C77.6228 76.0681 77.3938 74.9226 77.12 73.8318C76.4977 71.3513 74.148 69.6229 71.4499 69.613V69.6229Z" fill="#B6CBFF"/>
<path d="M60.2191 82.3838L63.6789 81.9655C64.3211 81.8907 64.9036 82.344 64.9782 82.9865C65.0529 83.6291 64.5999 84.2118 63.9577 84.2865L60.4979 84.7049C59.8557 84.7796 59.2733 84.3264 59.1986 83.6838C59.1239 83.0463 59.5819 82.4635 60.2191 82.3838Z" fill="#698FFF"/>
<path d="M72.8288 83.3202L69.364 83.6888C68.7218 83.7586 68.1443 83.2904 68.0796 82.6478C68.0099 82.0053 68.4779 81.4275 69.1201 81.3628L72.5849 80.9942C73.2271 80.9245 73.8045 81.3927 73.8692 82.0352C73.934 82.6727 73.471 83.2505 72.8288 83.3202Z" fill="#698FFF"/>
<path d="M97.2915 70.3551L92.3233 70.39L93.2194 61.808C93.299 61.026 93.9611 60.4283 94.7427 60.4233C95.5292 60.4233 96.1963 61.0061 96.2859 61.7831L97.2965 70.3551H97.2915Z" fill="#B5C3F3"/>
<path d="M94.7676 64.2935C94.0408 64.2935 93.3837 64.5873 92.8809 65.0406L92.3233 70.39L97.2915 70.3551L96.6643 65.0107C96.1565 64.5624 95.4944 64.2885 94.7676 64.2935Z" fill="#B5C3F3"/>
<path d="M96.5896 69.1946L97.5255 69.1896C98.8347 69.1797 99.91 70.2406 99.92 71.5506L99.9698 79.505C99.9797 80.8149 98.9194 81.8908 97.6101 81.9008L96.6742 81.9057L96.5896 69.1946Z" fill="#FF871D"/>
<path d="M94.7775 66.7191C96.3506 66.7092 97.635 67.9793 97.6499 69.5532L97.7296 81.5321C97.7395 83.1061 96.4701 84.3911 94.897 84.4061C93.3239 84.416 92.0395 83.1459 92.0246 81.572L91.945 69.5931C91.935 68.0141 93.2044 66.7291 94.7775 66.7191Z" fill="#DCE4FF"/>
<path d="M33.3221 77.6172L38.1708 76.5314L35.3731 68.3678C35.1192 67.6207 34.3476 67.1923 33.576 67.3617C32.8093 67.531 32.2966 68.2532 32.3812 69.0352L33.3171 77.6122L33.3221 77.6172Z" fill="#B5C3F3"/>
<path d="M34.4223 71.1421C35.1341 70.9827 35.841 71.1122 36.4285 71.446L38.1758 76.5364L33.3271 77.6222L32.7446 72.2778C33.1379 71.7299 33.7203 71.3115 34.4322 71.1471L34.4223 71.1421Z" fill="#B5C3F3"/>
<path d="M36.4982 88.7295L35.5822 88.9337C34.3028 89.2176 33.0284 88.4107 32.7446 87.1306L31.0122 79.3655C30.7285 78.0854 31.5349 76.8103 32.8143 76.5264L33.7303 76.3222L36.4982 88.7295Z" fill="#FF871D"/>
<path d="M38.7931 90.7617C37.2548 91.1053 35.7315 90.1341 35.388 88.6L32.7844 76.9099C32.441 75.3709 33.4117 73.8467 34.945 73.503C36.4832 73.1594 38.0065 74.1306 38.35 75.6647L40.9536 87.3548C41.2971 88.8939 40.3264 90.418 38.7931 90.7617Z" fill="#DCE4FF"/>
<path d="M96.495 132.028C94.4639 131.47 91.3227 128.352 89.2667 126.106C88.2561 125 88.749 123.212 90.1827 122.779C93.0949 121.897 97.3811 120.811 99.4222 121.374C102.663 122.261 104.639 125.369 103.833 128.312C103.026 131.256 99.7458 132.924 96.505 132.028H96.495Z" fill="#698FFF"/>
<path d="M93.6027 76.5313C92.4229 63.093 79.0017 53.5996 63.6192 55.3229L63.6242 55.3279C48.2416 57.0513 36.7271 69.339 37.907 82.7773C38.5193 89.7256 42.4023 95.613 48.1321 99.4482C48.9485 99.9961 49.9392 100.215 50.9149 100.106L83.8903 96.4099C84.8511 96.3003 85.7472 95.872 86.4292 95.1896C91.4123 90.154 94.21 83.4995 93.6027 76.5313ZM88.6146 80.5609L82.7453 87.1505C81.3166 88.7543 79.3452 89.7704 77.2146 90.0095L77.2046 89.9995L54.8327 92.5099C52.3237 92.7938 49.8197 91.967 47.9678 90.2635L43.1291 85.8007C41.3718 84.1869 40.8242 81.6417 41.7551 79.4451L45.9168 69.6179C47.2012 66.5946 50.4818 64.9509 53.6629 65.7428L63.9527 68.293C64.8438 68.5122 65.7897 68.4026 66.6011 67.9743L75.0988 63.5264C78.1106 61.9524 81.8194 62.8888 83.721 65.708L89.0726 73.6474C90.5262 75.7792 90.332 78.6283 88.6146 80.5609Z" fill="#DCE4FF"/>
<path d="M49.5708 100.041C49.5708 100.041 61.618 93.2521 84.9805 96.2157L69.588 111.731" fill="#698FFF"/>
<path d="M49.6654 78.2498C48.4657 78.3544 47.4103 77.4628 47.3057 76.2624L47.1813 74.8279C47.0768 73.6276 47.9678 72.5716 49.1676 72.467C50.3673 72.3624 51.4227 73.254 51.5272 74.4544L51.6517 75.8889C51.7513 77.0892 50.8651 78.1452 49.6654 78.2498Z" fill="#141226"/>
<path d="M81.5655 74.3747C80.3658 74.4793 79.3104 73.5877 79.2058 72.3873L79.0814 70.9528C78.9769 69.7524 79.8679 68.6965 81.0677 68.5919C82.2674 68.4873 83.3228 69.3789 83.4273 70.5793L83.5518 72.0137C83.6563 73.2141 82.7652 74.2701 81.5655 74.3747Z" fill="#141226"/>
<path d="M43.9505 26.1153C41.7153 26.3893 39.4452 27.1713 37.2797 28.4015C35.2237 29.5621 33.3071 31.0862 31.6295 32.8793C30.4198 34.1693 29.3396 35.5839 28.4186 37.0831L28.3539 37.1977L20.8617 50.3621C19.5525 52.6283 19.8711 55.2881 21.5786 56.349C21.5885 56.354 21.5985 56.364 21.6085 56.369C22.1411 56.6828 22.7684 56.8222 23.4305 56.7724L20.4635 61.823C19.9507 62.6996 19.7217 63.7107 19.8313 64.6372C20.0603 66.5697 21.6931 67.6506 23.5002 67.0479C24.0328 66.8686 24.5456 66.5548 24.9886 66.1264C25.2923 65.8425 25.5611 65.5088 25.7851 65.1402L26.1834 64.4877C26.5568 63.885 27.4927 62.0521 27.5076 62.0322C27.7416 62.4804 28.0851 62.8441 28.4982 63.0931C29.698 63.8303 31.3657 63.5264 32.6401 62.331C32.9637 62.0322 33.2574 61.6835 33.5013 61.305L33.8348 60.767C34.6911 60.9762 35.5871 61.0908 36.5181 61.1057C38.6089 61.1555 40.8142 60.7073 42.9897 59.7808C45.1403 58.8793 47.2211 57.5544 49.1029 55.8659C52.8465 52.5437 55.6093 48.0559 56.7543 43.3391C58.0138 38.1441 57.2571 33.4172 54.6585 30.105C52.2043 26.9571 48.3064 25.5375 43.9505 26.1153Z" fill="white"/>
<path d="M43.4029 38.3881L38.5093 39.2548C38.3401 39.2797 38.1758 39.4042 38.0762 39.5785L35.0893 44.5444C34.9848 44.7088 34.9599 44.9031 35.0196 45.0525L36.762 49.2065C36.8267 49.3609 36.981 49.4406 37.1553 49.4157L41.9692 48.7533C42.1384 48.7333 42.3127 48.6188 42.4222 48.4494L45.5933 43.4038C45.7078 43.2295 45.7376 43.0303 45.6729 42.8759L43.826 38.5923C43.7513 38.4329 43.592 38.3533 43.4029 38.3881ZM43.4029 38.3881L38.5093 39.2548C38.3401 39.2797 38.1758 39.4042 38.0762 39.5785L35.0893 44.5444C34.9848 44.7088 34.9599 44.9031 35.0196 45.0525L36.762 49.2065C36.8267 49.3609 36.981 49.4406 37.1553 49.4157L41.9692 48.7533C42.1384 48.7333 42.3127 48.6188 42.4222 48.4494L45.5933 43.4038C45.7078 43.2295 45.7376 43.0303 45.6729 42.8759L43.826 38.5923C43.7513 38.4329 43.592 38.3533 43.4029 38.3881ZM43.3879 28.9594C38.1957 29.5272 33.2225 33.3077 30.1958 38.159L22.5892 51.3682C21.9818 52.3992 22.1262 53.6195 22.9127 54.1027C22.9177 54.1077 22.9227 54.1077 22.9227 54.1077C23.759 54.6057 24.8791 54.0628 25.4765 53.0467L27.4329 49.7345C27.8212 49.0372 28.5779 48.6935 29.1255 48.9674C29.6781 49.2464 29.8075 50.0433 29.4142 50.7406C29.3993 50.7705 29.3794 50.8004 29.3644 50.8253L24.5904 58.8544C24.1822 59.4969 24.2568 60.2889 24.7596 60.6276C25.2624 60.9663 26.0042 60.7222 26.4224 60.0747C26.4373 60.0498 26.4572 60.0199 26.4721 59.99L29.9369 54.2372C30.3601 53.5548 31.1317 53.246 31.6893 53.5448C32.2368 53.8636 32.3414 54.6854 31.9182 55.3728L29.688 59.0188C29.2599 59.6762 29.3346 60.4831 29.8573 60.8318C30.38 61.1805 31.1566 60.9264 31.5897 60.269C31.6096 60.2391 31.6245 60.2142 31.6444 60.1843L33.2026 57.669C34.3775 58.2019 35.6867 58.4858 37.0756 58.5008C44.2392 58.5705 52.0051 51.8065 54.0113 43.4138C56.142 34.5031 51.1389 28.0329 43.3879 28.9594ZM47.9031 43.5831C46.8328 48.3299 42.5118 52.2 38.36 52.2847C34.3376 52.3693 31.9282 48.828 32.8541 44.3601C33.79 39.8326 37.8423 35.823 42.009 35.4843C46.3101 35.1257 49.0083 38.7667 47.9031 43.5831ZM43.4029 38.3881L38.5093 39.2548C38.3401 39.2797 38.1758 39.4042 38.0762 39.5785L35.0893 44.5444C34.9848 44.7088 34.9599 44.9031 35.0196 45.0525L36.762 49.2065C36.8267 49.3609 36.981 49.4406 37.1553 49.4157L41.9692 48.7533C42.1384 48.7333 42.3127 48.6188 42.4222 48.4494L45.5933 43.4038C45.7078 43.2295 45.7376 43.0303 45.6729 42.8759L43.826 38.5923C43.7513 38.4329 43.592 38.3533 43.4029 38.3881ZM24.212 61.6188C23.6893 61.31 22.9625 61.5889 22.5792 62.2414L22.1909 62.8839C21.8126 63.5264 21.9022 64.3034 22.4 64.6421C22.9127 64.9559 23.6445 64.687 24.0279 64.0395L24.4261 63.3969C24.8094 62.7395 24.7148 61.9525 24.212 61.6188Z" fill="url(#paint1_linear_11_170)"/>
<path d="M100.906 82.6528H109.906C110.573 82.6528 111.051 83.3651 110.857 84.0724L106.357 100.758C106.073 101.809 104.734 101.809 104.455 100.758L99.9548 84.0724C99.7657 83.3651 100.244 82.6528 100.906 82.6528Z" fill="#FFC069"/>
<mask id="mask1_11_170" style="mask-type:luminance" maskUnits="userSpaceOnUse" x="99" y="82" width="12" height="20">
<path d="M100.906 82.6528H109.906C110.573 82.6528 111.051 83.3651 110.857 84.0724L106.357 100.758C106.073 101.809 104.734 101.809 104.455 100.758L99.9548 84.0724C99.7657 83.3651 100.244 82.6528 100.906 82.6528Z" fill="white"/>
</mask>
<g mask="url(#mask1_11_170)">
<path d="M105.406 109.435L88.7291 92.749L105.406 76.0632L122.083 92.749L105.406 109.435ZM90.1379 92.749L105.406 108.025L120.674 92.749L105.406 77.4727L90.1379 92.749Z" fill="#FF8C19"/>
<path d="M118.366 89.729L102.392 105.712L103.096 106.416L119.07 90.4334L118.366 89.729Z" fill="#FF8C19"/>
<path d="M115.702 87.0643L99.7277 103.047L100.432 103.751L116.406 87.7686L115.702 87.0643Z" fill="#FF8C19"/>
<path d="M113.043 84.4009L97.069 100.384L97.773 101.088L113.747 85.1053L113.043 84.4009Z" fill="#FF8C19"/>
<path d="M110.382 81.7398L94.4083 97.7224L95.1123 98.4268L111.086 82.4442L110.382 81.7398Z" fill="#FF8C19"/>
<path d="M107.718 79.075L91.7441 95.0577L92.4481 95.7621L108.422 79.7794L107.718 79.075Z" fill="#FF8C19"/>
<path d="M103.096 79.0752L102.392 79.7796L118.366 95.7622L119.07 95.0578L103.096 79.0752Z" fill="#FF8C19"/>
<path d="M100.433 81.7409L99.7288 82.4453L115.703 98.4279L116.407 97.7235L100.433 81.7409Z" fill="#FF8C19"/>
<path d="M97.7695 84.4065L97.0655 85.1109L113.04 101.094L113.744 100.389L97.7695 84.4065Z" fill="#FF8C19"/>
<path d="M95.1133 87.0701L94.4093 87.7745L110.383 103.757L111.087 103.053L95.1133 87.0701Z" fill="#FF8C19"/>
<path d="M92.4479 89.7288L91.7439 90.4332L107.718 106.416L108.422 105.711L92.4479 89.7288Z" fill="#FF8C19"/>
</g>
<path d="M119.365 76.7306C120.41 74.813 121.037 72.6961 121.212 70.5195C121.386 68.4176 121.147 66.3007 120.51 64.2935C120.047 62.8291 119.38 61.4345 118.533 60.1544L118.464 60.0597L110.319 48.8778C108.866 46.8406 106.038 46.3674 104.002 47.8218C103.987 47.8318 103.977 47.8417 103.962 47.8517C103.35 48.305 102.857 48.9076 102.529 49.6L99.1882 45.0176C98.5958 44.2057 97.7097 43.6578 96.719 43.4885C94.6531 43.1398 92.6967 44.5345 92.3482 46.6015C92.2486 47.2042 92.2934 47.8268 92.4826 48.4096C92.6071 48.808 92.7962 49.1766 93.0402 49.5103L93.4782 50.103C93.8765 50.6559 95.1758 52.1253 95.1808 52.1502C94.6182 52.2548 94.0906 52.4839 93.6326 52.8226C92.3034 53.7889 91.7508 55.4973 92.2586 57.0563C92.383 57.4498 92.5672 57.8233 92.8062 58.162L93.1497 58.6302C92.5224 59.3774 91.9649 60.1793 91.4969 61.036C90.4316 62.9337 89.7894 65.0406 89.6152 67.2073C89.431 69.3092 89.665 71.426 90.3072 73.4383C91.5268 77.3333 94.1752 80.6306 97.7147 82.6628C101.558 84.8693 105.949 85.4222 110.09 84.2417C114.068 83.0912 117.418 80.3866 119.365 76.7306Z" fill="white"/>
<path d="M108.781 73.1345L110.668 68.7115C110.738 68.5571 110.718 68.3778 110.613 68.2483L107.701 64.2486C107.601 64.1092 107.442 64.0345 107.273 64.0444L102.479 64.4927C102.3 64.5076 102.145 64.6222 102.076 64.7916L100.189 69.2145C100.119 69.3689 100.134 69.5483 100.234 69.6827L103.156 73.6824C103.255 73.8218 103.415 73.8965 103.584 73.8866L108.378 73.4383C108.557 73.4134 108.711 73.2988 108.781 73.1345ZM108.781 73.1345L110.668 68.7115C110.738 68.5571 110.718 68.3778 110.613 68.2483L107.701 64.2486C107.601 64.1092 107.442 64.0345 107.273 64.0444L102.479 64.4927C102.3 64.5076 102.145 64.6222 102.076 64.7916L100.189 69.2145C100.119 69.3689 100.134 69.5483 100.234 69.6827L103.156 73.6824C103.255 73.8218 103.415 73.8965 103.584 73.8866L108.378 73.4383C108.557 73.4134 108.711 73.2988 108.781 73.1345ZM117.179 75.5402C119.658 71.0076 119.156 65.6184 116.457 61.5092L108.313 50.3272C107.656 49.4007 106.372 49.1866 105.451 49.844C105.446 49.849 105.441 49.849 105.436 49.854C104.47 50.5513 104.365 51.8364 105.013 52.7279L107.098 55.6069C107.547 56.1797 107.447 57.0115 106.87 57.4597C106.297 57.908 105.466 57.8084 105.018 57.2306C104.998 57.2057 104.983 57.1808 104.963 57.1559L99.8453 50.1329C99.4371 49.5302 98.6157 49.3709 98.0133 49.7793C97.411 50.1877 97.2517 51.0096 97.6599 51.6122C97.6748 51.6371 97.6947 51.662 97.7147 51.687L101.398 56.7375C101.822 57.3352 101.697 58.162 101.115 58.6053C100.517 59.0337 99.686 58.8992 99.2579 58.3065L96.948 55.1337C96.5398 54.531 95.7184 54.3716 95.1161 54.7801C94.5137 55.1885 94.3544 56.0103 94.7626 56.613C94.7775 56.6379 94.7974 56.6628 94.8174 56.6877L96.4104 58.8743C95.3052 59.8257 94.3743 60.9613 93.6624 62.2364C90.1329 68.6019 92.5623 76.8303 98.9592 80.5011C105.58 84.2965 113.714 82.0053 117.179 75.5402ZM101.817 75.5502C98.1278 73.4532 96.7788 68.7762 98.7949 65.0954C100.816 61.4145 105.441 60.1544 109.12 62.2563C112.799 64.3582 114.163 69.0402 112.141 72.7111C110.12 76.382 105.501 77.662 101.817 75.5502ZM108.781 73.1345L110.668 68.7115C110.738 68.5571 110.718 68.3778 110.613 68.2483L107.701 64.2486C107.601 64.1092 107.442 64.0345 107.273 64.0444L102.479 64.4927C102.3 64.5076 102.145 64.6222 102.076 64.7916L100.189 69.2145C100.119 69.3689 100.134 69.5483 100.234 69.6827L103.156 73.6824C103.255 73.8218 103.415 73.8965 103.584 73.8866L108.378 73.4383C108.557 73.4134 108.711 73.2988 108.781 73.1345ZM97.3413 48.9325C97.9287 48.4942 98.0532 47.6624 97.6151 47.0697L97.1919 46.472C96.7588 45.8843 95.9325 45.7448 95.3301 46.1582C94.7427 46.5965 94.6182 47.4283 95.0563 48.0211L95.4795 48.6188C95.9126 49.2115 96.734 49.346 97.3413 48.9325Z" fill="url(#paint2_linear_11_170)"/>
<path d="M38.7831 122.873C37.9966 123.521 36.8367 123.406 36.1945 122.624L21.7628 105.082C21.1156 104.295 21.2301 103.134 22.0117 102.492C22.7983 101.844 23.9582 101.959 24.6004 102.741L39.0321 120.283C39.6842 121.065 39.5697 122.226 38.7831 122.873Z" fill="#91FFAD"/>
<path d="M26.6115 109.036C23.5151 111.587 18.9352 111.143 16.3864 108.045C13.8375 104.947 14.2806 100.365 17.377 97.8145L19.2637 96.2605L28.4933 107.482L26.6115 109.036Z" fill="#91FFAD"/>
<path d="M28.4975 107.479C30.5651 105.776 30.1747 101.884 27.6255 98.7852C25.0763 95.6864 21.3337 94.5547 19.2661 96.2574C17.1985 97.9601 17.5889 101.852 20.1381 104.951C22.6873 108.05 26.4299 109.182 28.4975 107.479Z" fill="#91FFAD"/>
<path d="M26.1336 107.278C24.4112 107.278 22.4099 106.142 20.9115 104.319C19.8263 103 19.1343 101.49 18.97 100.071C18.8107 98.736 19.1443 97.6501 19.9059 97.0275C20.3639 96.654 20.9464 96.4597 21.6433 96.4597C23.3658 96.4597 25.367 97.5904 26.8654 99.4183C27.9506 100.738 28.6426 102.247 28.8069 103.667C28.9662 105.002 28.6327 106.088 27.871 106.71C27.413 107.089 26.8256 107.278 26.1336 107.278Z" fill="#29CC7A"/>
<path d="M35.0396 121.215C33.9095 110.257 26.9998 111.442 26.9998 111.442L27.4578 117.877L35.0396 121.215Z" fill="#698FFF"/>
<path d="M107.288 89.8452C106.377 92.5149 106.665 99.7072 106.665 99.7072L109.906 87.6984C109.901 87.6984 108.199 87.1804 107.288 89.8452Z" fill="#698FFF"/>
</g>
<defs>
<linearGradient id="paint0_linear_11_170" x1="67.9802" y1="91.6109" x2="67.5789" y2="127.048" gradientUnits="userSpaceOnUse">
<stop offset="0.52" stop-color="#698FFF"/>
<stop offset="0.83" stop-color="#597BF0"/>
<stop offset="1" stop-color="#4F6FE7"/>
</linearGradient>
<linearGradient id="paint1_linear_11_170" x1="22.4939" y1="46.0866" x2="53.9057" y2="48.0885" gradientUnits="userSpaceOnUse">
<stop stop-color="#3646D6"/>
<stop offset="1" stop-color="#FA6EF6"/>
</linearGradient>
<linearGradient id="paint2_linear_11_170" x1="111.099" y1="51.3704" x2="96.637" y2="79.2146" gradientUnits="userSpaceOnUse">
<stop stop-color="#3646D6"/>
<stop offset="1" stop-color="#FA6EF6"/>
</linearGradient>
<clipPath id="clip0_11_170">
<rect width="660" height="171" rx="16" fill="white"/>
</clipPath>
</defs>
</svg>
