<svg xmlns="http://www.w3.org/2000/svg" width="36" height="36" viewBox="0 0 36 36" fill="none">
<g opacity="0.3">
  <rect width="36" height="36" style="fill:rgb(0,0,0)"/>
  <g transform="translate(6,8)">
    <path d="M20.3303 2.34078C18.7767 1.62089 17.1156 1.09769 15.3789 0.799805C15.1656 1.18171 14.9164 1.69536 14.7446 2.104C12.8985 1.82903 11.0693 1.82903 9.25716 2.104C9.08538 1.69536 8.83055 1.18171 8.61535 0.799805C6.8768 1.09769 5.21375 1.6228 3.66019 2.34459C0.526644 7.03434 -0.322811 11.6076 0.101917 16.1159C2.18025 17.6531 4.19441 18.5869 6.17458 19.1979C6.66349 18.5315 7.09954 17.823 7.47519 17.0764C6.75976 16.8072 6.07453 16.4749 5.42706 16.0892C5.59884 15.9632 5.76684 15.8314 5.92918 15.6959C9.87821 17.5252 14.1689 17.5252 18.0707 15.6959C18.235 15.8314 18.403 15.9632 18.5729 16.0892C17.9235 16.4768 17.2364 16.8091 16.521 17.0783C16.8966 17.823 17.3308 18.5334 17.8216 19.1998C19.8036 18.5888 21.8197 17.655 23.898 16.1159C24.3963 10.8896 23.0467 6.35838 20.3303 2.34078ZM8.01318 13.3433C6.82772 13.3433 5.85556 12.2473 5.85556 10.9125C5.85556 9.5778 6.80695 8.47984 8.01318 8.47984C9.21941 8.47984 10.1916 9.57589 10.1708 10.9125C10.1727 12.2473 9.21941 13.3433 8.01318 13.3433ZM15.9867 13.3433C14.8013 13.3433 13.8291 12.2473 13.8291 10.9125C13.8291 9.5778 14.7805 8.47984 15.9867 8.47984C17.193 8.47984 18.1651 9.57589 18.1444 10.9125C18.1444 12.2473 17.193 13.3433 15.9867 13.3433Z" fill="white"/>
  </g>
</g>
</svg>
