<svg width="380" height="206" viewBox="0 0 380 206" fill="none" xmlns="http://www.w3.org/2000/svg">
<g clip-path="url(#clip0_3632_10061)">
<path d="M48.67 73.56V161.78H331.34V73.56C331.34 62.51 322.39 53.56 311.34 53.56H68.67C57.62 53.56 48.67 62.51 48.67 73.56Z" fill="url(#paint0_linear_3632_10061)"/>
<path d="M128.67 151.11H146.45C150.67 151.11 156.67 148.44 156.01 141.33C155.35 134.22 152.12 130.66 148.23 132C144.34 133.33 127.56 140.44 127.56 140.44L128.67 151.11Z" fill="white"/>
<path d="M147.8 151.02C147.34 151.08 146.88 151.11 146.44 151.11H144.16C149.71 143.21 147.62 138.37 144.03 133.61C145.13 133.17 146.11 132.78 146.91 132.47C150.3 137.19 152.65 142.92 147.8 151.02Z" fill="#D0D0DB"/>
<path d="M113.33 82.11C118.22 83.33 136.51 91.42 140.73 97.08L145.4 117.58L115.67 120L113.34 82.11H113.33Z" fill="#252144"/>
<path d="M152.4 122.36C151.82 118.22 149.34 115.42 139.62 113.69C131.73 112.29 122.81 114.36 119.07 116.39L74.17 116.83V134.16L127.17 144.99C127.17 144.99 133.25 143.27 141.07 138.46C150.97 132.38 153.18 127.9 152.4 122.35V122.36Z" fill="#252144"/>
<path d="M114.33 82C114.33 82 120.22 91.15 122.16 98.92C123.66 104.92 122.45 113.88 118.66 115.45L77.49 114.51L74.82 99.51L84.32 78.51L114.32 82.01L114.33 82Z" fill="#423D80"/>
<path d="M120.13 93C117.23 96.38 108.9 101.75 108.9 101.75L80.9 94.25L85.49 78.64L114.33 82C114.33 82 117.65 87.15 120.13 93Z" fill="#57F287"/>
<path d="M106.33 117.61C106.15 117.61 105.96 117.58 105.78 117.5C105.01 117.19 104.63 116.32 104.94 115.55C104.97 115.48 107.87 108.09 107.4 101.86C106.7 92.55 103.3 83.65 103.26 83.56C102.96 82.79 103.35 81.92 104.12 81.62C104.89 81.32 105.76 81.71 106.06 82.48C106.21 82.86 109.66 91.89 110.39 101.64C110.91 108.57 107.85 116.34 107.72 116.67C107.49 117.26 106.92 117.62 106.33 117.62V117.61Z" fill="white"/>
<path d="M78.94 114.2L77.62 122.43C77.62 122.43 94.04 124.57 103.95 123.99C117.12 123.22 119.22 122.48 119.39 121.1C119.95 116.71 119.95 115.24 119.28 115.13C118.61 115.02 112.32 115.21 107.38 115.12C94.54 114.88 78.93 114.21 78.93 114.21L78.94 114.2Z" fill="#5865F2"/>
<path d="M123.17 151L130.34 139.33C130.34 139.33 133.24 141.98 133.96 144.02C134.88 146.6 134.09 150.16 131.84 150.83L123.17 151Z" fill="#5865F2"/>
<path d="M116.57 120.08C126.63 127.65 132.74 135.76 130.74 141.25C128.52 147.34 125.34 151 125.34 151H75.17L75.4 131.76C105.4 114.76 110.62 115.6 116.57 120.08Z" fill="#423D80"/>
<path d="M73.07 82.81C66.4 86.03 59.85 94.92 59.85 94.92C59.85 94.92 42.58 102.8 43.82 111.25C44.65 116.92 47.65 118.5 47.65 118.5L74 120.17C74 120.17 78.67 107.67 79.83 105.5C80.99 103.33 78.66 100 78.66 100C78.66 100 83.5 93.69 84.84 81.69C84.84 81.69 78.58 80.13 73.06 82.8L73.07 82.81Z" fill="#423D80"/>
<path d="M66.11 114.21L65.19 119.12C53.65 116.98 47 114.48 43.8 111C43.53 108.58 44.77 106.21 46.67 104.07C46.31 105.42 46.57 106.21 46.83 106.71C48.32 109.58 54.8 112.11 66.11 114.21Z" fill="#57F287"/>
<path d="M77.81 105.86L74.82 105.65C74.81 105.65 74.48 102.99 67.48 100.04C66.72 99.72 66.36 98.84 66.68 98.08C67 97.32 67.88 96.96 68.64 97.28C77.67 101.09 77.86 105.1 77.8 105.86H77.81Z" fill="#252144"/>
<path d="M63.95 120.76C63.43 118.78 64.03 111.47 67.31 107.98C70.59 104.49 73.74 104.1 76.36 104.85C77.98 105.31 82.87 107.27 81.02 109.75C79.79 111.4 69.59 123.43 69.59 123.43L63.95 120.75V120.76Z" fill="#5865F2"/>
<path d="M107.05 10.48L103.09 8.27C94.95 7.62 79.82 11.72 84.9 17.32C90.07 23.02 115.07 15.9 115.07 15.9L107.06 10.48H107.05Z" fill="#EB459F"/>
<path d="M103.49 30.58C103.49 30.58 106.36 26.22 107.45 20.14C108.47 14.45 105.25 9.05001 103.09 8.26001C114.61 9.15001 120.7 12.63 121.21 16.98C122.03 23.98 111.93 31.79 111.93 31.79L103.5 30.57L103.49 30.58Z" fill="#FF78B9"/>
<path d="M107.76 30.17C107.76 30.17 111.38 25.09 112.13 19.23C113.15 11.34 107.97 8.84998 107.97 8.84998C116.02 9.80998 120.97 13.9 117.08 21.61C114.03 27.67 108.47 32.2 108.47 32.2L107.75 30.17H107.76Z" fill="#FFAED7"/>
<path d="M93.97 35.59C93.97 35.59 83.91 27.51 69.91 22.64C50.22 15.78 43.87 13.1 44.14 7.35998C44.47 0.469982 56.77 -2.96002 72.12 3.25998C88.23 9.78998 98.74 22.09 101.1 30.86L93.96 35.59H93.97Z" fill="#FF78B9"/>
<path d="M62.18 9.72999C61.66 12.69 70.17 15.44 79.78 20.81C89.35 26.15 95.64 31.56 95.64 31.56L98.32 29.84C98.32 29.84 94.31 23.35 86.22 16.91C71.89 5.49999 62.64 7.11999 62.18 9.72999Z" fill="#FFAED7"/>
<path d="M99.87 27.74C118.98 28.3 130.28 33.75 131.69 43.58C132.72 50.79 127.52 55.79 127.52 55.79C127.52 55.79 132.92 62.05 132.28 69.95C131.59 78.39 125.22 85.07 98.12 83.74C70.09 82.36 64.4 76.65 62.73 68.99C60.72 59.76 68.59 54.01 68.59 54.01C68.59 54.01 63.31 47.71 65.12 40.37C67.03 32.59 74.97 27.02 99.88 27.75L99.87 27.74Z" fill="#FF78B9"/>
<path d="M94.0326 54.2065C94.977 53.5623 94.8016 51.6605 93.6407 49.9587C92.4798 48.2569 90.7731 47.3996 89.8287 48.0438C88.8843 48.6881 89.0598 50.5899 90.2206 52.2917C91.3815 53.9935 93.0882 54.8508 94.0326 54.2065Z" fill="#231F20"/>
<path d="M113.941 53.1246C115.142 51.4508 115.363 49.5537 114.434 48.8872C113.505 48.2207 111.778 49.0373 110.577 50.711C109.376 52.3848 109.156 54.2819 110.085 54.9484C111.014 55.6149 112.74 54.7983 113.941 53.1246Z" fill="#231F20"/>
<path d="M105.39 60.71L98.44 60.31C98.44 60.31 98.98 69.53 101.63 69.43C104.28 69.33 105.39 60.7 105.39 60.7V60.71Z" fill="#D11583"/>
<path d="M128.84 74.65C130.34 69.6 131.95 68.54 138.95 69.8C140.95 64.36 146.51 64.69 150.17 66.58C154.84 63.14 160.5 62.91 162.39 71.58C166.83 71.25 167.62 73.9 166.61 79.54L128.83 74.65H128.84Z" fill="#FFE75C"/>
<path d="M159.07 117.91L126.72 113.9C125.69 113.77 124.93 112.88 124.97 111.84L126.42 72.9L169.38 78.22L161.28 116.34C161.06 117.36 160.11 118.04 159.08 117.91H159.07Z" fill="white"/>
<path d="M144.75 75.17L140.5 115.61L137.53 115.24L141.78 74.81L144.75 75.17Z" fill="#EB459F"/>
<path d="M154.41 76.37L148.87 116.65L145.89 116.28L151.44 76L154.41 76.37Z" fill="#EB459F"/>
<path d="M134.92 73.96L132.26 114.59L129.27 114.22L131.94 73.58L134.92 73.96Z" fill="#EB459F"/>
<path d="M163.65 77.52L157.15 117.67L154.17 117.3L160.68 77.15L163.65 77.52Z" fill="#EB459F"/>
<path d="M164.99 85.72C156.89 85.7 154.42 93.4 155.57 101.49C156.72 109.58 163.74 110.99 167.17 109.32C170.98 107.46 173.03 101.02 173.3 95.7C173.43 93.21 173.1 85.74 165 85.73L164.99 85.72Z" fill="#FF78B9"/>
<path d="M276.31 120.68C275.86 120.68 275.4 120.6 274.96 120.44C250.96 111.81 239.3 94.16 234.48 84.42C233.5 82.44 234.31 80.04 236.3 79.06C238.28 78.08 240.68 78.89 241.66 80.88C245.94 89.55 256.31 105.23 277.67 112.92C279.75 113.67 280.83 115.96 280.08 118.04C279.49 119.67 277.96 120.69 276.32 120.69L276.31 120.68Z" fill="#D0D0DB"/>
<path d="M252.82 101.81C251.65 103.01 251.13 104.64 251.32 106.48C250.33 105.61 249.39 104.72 248.49 103.83C248.82 102.26 249.56 100.85 250.69 99.71C251.57 98.82 252.61 98.16 253.74 97.76C254.57 98.6 255.45 99.44 256.38 100.27C255.06 100.29 253.78 100.84 252.82 101.81Z" fill="#B5B5C9"/>
<path d="M265.68 107.19C264.21 106.99 262.88 107.93 262.08 108.97C261.19 110.12 260.52 111.95 261.1 113.77C260 113.09 258.93 112.39 257.91 111.67C258.03 110.09 258.64 108.51 259.71 107.13C260.44 106.18 261.31 105.45 262.26 104.95C263.35 105.72 264.49 106.47 265.68 107.19Z" fill="#B5B5C9"/>
<path d="M248.63 91.97C246.81 91.69 245.5 92.42 244.69 93.15C243.42 94.29 242.66 96.08 242.81 97.49C241.93 96.4 241.12 95.32 240.37 94.26C240.87 93.01 241.66 91.84 242.69 90.92C243.8 89.93 245.1 89.29 246.48 89.04C247.14 90 247.86 90.98 248.63 91.97Z" fill="#B5B5C9"/>
<path d="M299.98 114.57C299.98 114.57 307.48 126.07 306.48 138.07C305.83 145.87 297.72 150.12 293.7 150.12C289.68 150.12 280.62 150.12 275.38 150.12C270.14 150.12 263.73 145.32 263.06 137.66C262.11 126.69 273.67 113.87 273.67 113.87L299.98 114.58V114.57Z" fill="white"/>
<path d="M306.25 139.57C306.04 140.59 305.69 141.54 305.23 142.41C302.85 141.27 284.55 133.02 263.02 137.05C262.98 136.04 263.04 135.01 263.18 133.97C284.83 130.15 302.71 137.9 306.25 139.57Z" fill="#D0D0DB"/>
<path d="M224.15 89.15C227.73 88.57 246.19 84.47 251.4 83.15C254.11 82.46 254.75 82.18 254.82 80.73C255.27 71.22 254.52 50.97 252.62 40.25C250.98 30.98 245.73 31.21 240.91 31.43C235.96 31.66 232.15 32.38 232.73 49.31C215.48 52.21 203.77 55.88 218.9 87.98C219.91 90.11 220.87 89.68 224.15 89.15Z" fill="#66BCFF"/>
<path d="M229.82 79.02C225.72 79.02 223.77 76.79 221.99 73.11C221.63 72.36 221.94 71.47 222.69 71.11C223.43 70.75 224.33 71.06 224.69 71.81C226.31 75.16 227.46 76.56 231.72 75.85C232.53 75.72 233.31 76.27 233.45 77.08C233.59 77.89 233.03 78.67 232.22 78.8C231.35 78.94 230.56 79.01 229.83 79.01L229.82 79.02Z" fill="#8CD9FF"/>
<path d="M230.42 65.28C229.87 65.28 229.35 64.98 229.08 64.46C229.06 64.42 226.9 60.21 224.74 57.9C224.18 57.29 224.21 56.35 224.81 55.78C225.42 55.22 226.37 55.25 226.93 55.85C229.38 58.47 231.65 62.91 231.75 63.1C232.13 63.84 231.83 64.74 231.09 65.12C230.87 65.23 230.64 65.28 230.41 65.28H230.42Z" fill="#8CD9FF"/>
<path d="M237.79 64.82C237.18 64.82 236.6 64.44 236.38 63.84C236.36 63.8 234.75 59.44 232.31 56.17C231.81 55.51 231.95 54.57 232.62 54.07C233.28 53.57 234.22 53.71 234.72 54.38C237.43 58.01 239.13 62.62 239.2 62.82C239.48 63.6 239.08 64.46 238.31 64.74C238.14 64.8 237.97 64.83 237.79 64.83V64.82Z" fill="#8CD9FF"/>
<path d="M248.45 70.49C248.52 71.31 247.91 72.04 247.09 72.11C246.32 72.17 245.64 71.65 245.49 70.92C245.47 70.86 245.46 70.81 245.46 70.75C245.3 68.91 243.33 66.5 238.3 65.75C231.6 64.76 229.05 65.24 228.59 67.62C228.49 68.14 228.59 68.59 228.89 69.03C230 70.66 233.28 71.58 234.45 71.79L236.35 72.14L235.54 73.9C235.44 74.13 233.13 79.45 236.94 86.48C235.91 86.71 234.89 86.93 233.9 87.14C231.1 81.49 231.64 76.75 232.25 74.34C230.48 73.81 227.78 72.72 226.41 70.73C225.66 69.62 225.4 68.35 225.65 67.05C226.82 61.01 234.28 62.12 238.74 62.78C241.68 63.21 243.85 64.15 245.38 65.32C247.38 66.84 248.3 68.75 248.45 70.49Z" fill="#8CD9FF"/>
<path d="M248.13 83.94C247.19 84.17 246.15 84.41 245.03 84.67C245.49 80.76 245.55 75.66 245.49 70.92C245.47 68.95 245.42 67.05 245.38 65.32C245.36 64.71 245.35 64.12 245.33 63.56C245.3 62.65 245.28 61.82 245.26 61.09C245.1 53.99 244.29 44.49 242.53 39.12C242.28 38.37 241.59 38.26 241.19 38.25C240.52 38.24 239.95 38.54 239.81 38.93C238.52 42.59 238.95 50.77 239.23 53.62C239.26 54.02 239.14 54.42 238.88 54.73C238.63 55.03 238.26 55.23 237.86 55.26C237.74 55.27 226 56.29 221.08 59.64C218.24 61.57 214.73 63.97 225.84 88.84C225.12 88.98 224.55 89.09 224.15 89.15C223.65 89.23 223.2 89.31 222.8 89.38C211.89 64.78 214.51 60.49 219.39 57.16C223.88 54.1 232.62 52.83 236.12 52.42C235.9 49.26 235.58 41.9 236.98 37.93C237.56 36.31 239.25 35.25 241.23 35.25C243.2 35.27 244.79 36.4 245.38 38.18C247.79 45.52 248.2 58.5 248.26 61.02C248.28 61.75 248.3 62.57 248.32 63.47C248.48 69.2 248.71 77.69 248.13 83.94Z" fill="#8CD9FF"/>
<path d="M250.82 50.57C252.24 65.73 251.68 80.86 251.58 83.11C254.13 82.46 254.75 82.15 254.82 80.74C255.27 71.23 254.52 50.98 252.62 40.26C251.07 31.45 246.25 31.22 241.64 31.41C247.43 32.02 249.26 33.96 250.82 50.58V50.57Z" fill="#3F99F2"/>
<path d="M297.32 116.07C292.57 116.67 282.13 116.43 277.34 115.72C271.84 114.91 270.22 112 271.47 106.58L303.43 107.32C304.32 111.46 302.95 115.36 297.32 116.07Z" fill="#6990FF"/>
<path d="M288.05 116.4C287.04 116.38 286.02 116.36 285.02 116.32C284.86 114.77 284.59 111.47 284.85 107.65C284.87 107.37 284.96 107.11 285.12 106.9L287.62 106.95C287.78 107.21 287.86 107.52 287.84 107.85C287.57 111.81 287.91 115.25 288.05 116.4Z" fill="#5874F2"/>
<path d="M298.8 115.79C298.34 115.91 297.85 116 297.32 116.07C296.83 116.13 296.28 116.18 295.69 116.23C295.69 116.14 295.7 116.05 295.72 115.96C295.73 115.93 296.14 114.13 296.14 111.3C296.14 110.32 296.09 109.22 295.96 108.03C295.93 107.71 295.99 107.41 296.13 107.15L298.8 107.21C298.87 107.36 298.92 107.52 298.94 107.7C299.36 111.47 299.03 114.41 298.8 115.79Z" fill="#5874F2"/>
<path d="M278.94 115.91C278.36 115.86 277.82 115.79 277.34 115.72C276.67 115.62 276.05 115.49 275.5 115.32C274.9 113.04 274.98 110.24 275.19 107.47C275.21 107.17 275.33 106.89 275.5 106.67L277.9 106.73C278.1 107 278.21 107.34 278.18 107.7C277.95 110.77 277.87 114.12 278.94 115.91Z" fill="#5874F2"/>
<path d="M302.6 76.92L306.02 83.25C306.02 83.25 311.5 81.58 316.44 79.75C321.38 77.92 321.03 73.29 317.61 66.83C313.94 59.91 309.82 61.55 307.44 66.33C304.01 73.23 302.61 76.91 302.61 76.91L302.6 76.92Z" fill="#FF78B9"/>
<path d="M307.43 66.33C304 73.23 302.6 76.91 302.6 76.91L304.98 81.33L317.17 66.09C313.61 60.06 309.71 61.73 307.43 66.33Z" fill="white"/>
<path d="M274.76 77.15L270.59 83.02C270.59 83.02 265.35 80.69 260.68 78.27C255.79 75.73 256.92 71.29 261.11 65.31C265.6 58.9 269.49 61.02 271.26 66.06C273.82 73.33 274.76 77.16 274.76 77.16V77.15Z" fill="#FF78B9"/>
<path d="M274.76 77.15C274.76 77.15 273.82 73.33 271.26 66.05C269.56 61.21 265.89 59.08 261.62 64.62L271.85 81.24L274.76 77.15Z" fill="white"/>
<path d="M288.16 62.07C288.16 62.07 288.12 62.07 288.1 62.07C287.27 62.04 286.63 61.34 286.66 60.52C287.15 47.05 295.1 39.87 309.05 40.25C309.88 40.27 310.53 40.96 310.51 41.79C310.49 42.62 309.79 43.27 308.97 43.25C296.6 42.89 290.1 48.74 289.66 60.63C289.63 61.44 288.97 62.08 288.16 62.08V62.07Z" fill="black"/>
<path d="M260.54 87.55L264.4 87.62L264.18 100.33L260.32 100.26C258.21 100.22 256.54 97.35 256.6 93.84C256.66 90.33 258.42 87.51 260.54 87.55Z" fill="#5874F2"/>
<path d="M269.28 82.53C269.28 82.53 269.28 82.43 269.28 82.38C269.45 72.14 277.88 63.97 288.11 64.1C298.34 64.32 306.48 72.77 306.31 83.02C306.31 83.07 306.31 83.12 306.31 83.17C310.73 85.47 313.63 90.11 313.63 95.42C313.63 103.62 309.62 109.01 286.6 108.56C265.25 108.15 262.17 102.77 261.56 94.53C261.17 89.23 264.8 84.68 269.29 82.53H269.28Z" fill="white"/>
<path d="M282.32 87.83C282.31 88.66 283.32 89.47 283.79 89.47C284.26 89.47 285.3 88.71 285.32 87.88C285.34 87.05 284.67 86.85 283.84 86.84C283.01 86.83 282.34 87 282.32 87.83Z" fill="#231F20"/>
<path d="M295.89 79.18C295.23 78.68 293.83 79.14 292.41 80.66C290.77 82.41 290.41 84.45 291.34 84.78C292.2 85.09 293.43 84.3 294.8 82.73C296.17 81.16 296.51 79.64 295.89 79.17V79.18Z" fill="#231F20"/>
<path d="M275.03 79.18C275.69 78.68 277.09 79.14 278.51 80.66C280.15 82.41 280.51 84.45 279.58 84.78C278.72 85.09 277.49 84.3 276.12 82.73C274.75 81.16 274.41 79.64 275.03 79.17V79.18Z" fill="#231F20"/>
<path d="M294.984 66.0511L281.046 65.8127C280.766 65.8079 280.55 65.5842 280.555 65.3042L280.6 62.6546C280.628 60.9949 281.991 59.678 283.651 59.7064L292.59 59.8593C294.249 59.8877 295.566 61.2504 295.538 62.9102L295.493 65.5598C295.488 65.8397 295.264 66.0559 294.984 66.0511Z" fill="#6990FF"/>
<path d="M311.8 88.42L316.66 88.49L316.44 101.2L311.58 101.13C309.47 101.09 307.8 98.22 307.86 94.71C307.92 91.2 309.68 88.38 311.8 88.42Z" fill="#5874F2"/>
<path d="M320.4 94.914C320.46 91.402 318.794 88.5256 316.679 88.4895C314.564 88.4533 312.801 91.271 312.741 94.783C312.681 98.2951 314.346 101.171 316.461 101.208C318.576 101.244 320.34 98.4261 320.4 94.914Z" fill="#6990FF"/>
<path d="M282.12 91.66L288.91 91.45C288.91 91.45 289.04 98.96 285.77 98.87C283.16 98.8 282.13 91.66 282.13 91.66H282.12Z" fill="#FFAED7"/>
<path d="M307.57 45.94C310.193 45.94 312.32 43.8134 312.32 41.19C312.32 38.5666 310.193 36.44 307.57 36.44C304.947 36.44 302.82 38.5666 302.82 41.19C302.82 43.8134 304.947 45.94 307.57 45.94Z" fill="#6990FF"/>
<path d="M273.71 85.5C274.79 86.7 275.73 88.01 276.48 89.44C276.99 90.43 275.63 91.37 274.88 90.57C273.79 89.38 272.87 88.05 272.11 86.63C271.86 86.14 272.06 85.55 272.55 85.3C272.95 85.1 273.42 85.19 273.71 85.5Z" fill="#FFAED7"/>
<path d="M269.64 85.85C270.72 87.05 271.66 88.36 272.41 89.79C272.92 90.78 271.56 91.72 270.81 90.92C269.72 89.73 268.8 88.4 268.04 86.98C267.79 86.49 267.99 85.9 268.48 85.65C268.88 85.45 269.35 85.54 269.64 85.85Z" fill="#FFAED7"/>
<path d="M298.16 86.63C297.39 88.05 296.48 89.38 295.39 90.57C294.62 91.38 293.29 90.42 293.79 89.44C294.55 88.01 295.48 86.7 296.56 85.5C296.94 85.1 297.56 85.09 297.96 85.46C298.28 85.77 298.35 86.24 298.16 86.62V86.63Z" fill="#FFAED7"/>
<path d="M302.24 86.9701C301.47 88.3901 300.56 89.7201 299.47 90.9101C298.7 91.7201 297.37 90.7601 297.87 89.7801C298.63 88.3501 299.56 87.0401 300.64 85.8401C301.02 85.4401 301.64 85.4301 302.04 85.8001C302.36 86.1101 302.43 86.5801 302.24 86.9601V86.9701Z" fill="#FFAED7"/>
<path d="M314.42 186.28H302.59C302.59 186.28 306.16 200.13 307.92 204.72C308.28 205.65 308.62 206 309.2 206H313.8C314.15 206 314.42 205.72 314.42 205.38V186.28Z" fill="#FF8C19"/>
<path d="M65.58 186.28H77.41C77.41 186.28 73.84 200.13 72.08 204.72C71.72 205.65 71.38 206 70.8 206H66.2C65.85 206 65.58 205.72 65.58 205.37V186.27V186.28Z" fill="#FF8C19"/>
<path d="M331.61 117.83H313.72C308.2 117.83 303.72 122.31 303.72 127.83V150.11H76.28V127.83C76.28 122.31 71.8 117.83 66.28 117.83H48.39C42.87 117.83 38.39 122.31 38.39 127.83V178.5C38.39 184.02 42.87 188.5 48.39 188.5H331.61C337.13 188.5 341.61 184.02 341.61 178.5V127.83C341.61 122.31 337.13 117.83 331.61 117.83Z" fill="#FFDF4B"/>
<path d="M307.78 172.32H72.1C67.96 172.32 64.6 168.96 64.6 164.82V154.66C64.6 150.52 67.96 147.16 72.1 147.16H76.28V150.16H72.1C69.62 150.16 67.6 152.18 67.6 154.66V164.82C67.6 167.3 69.62 169.32 72.1 169.32H307.78C310.26 169.32 312.28 167.3 312.28 164.82V154.66C312.28 152.18 310.26 150.16 307.78 150.16H303.6V147.16H307.78C311.92 147.16 315.28 150.52 315.28 154.66V164.82C315.28 168.96 311.92 172.32 307.78 172.32Z" fill="#FFC619"/>
<path d="M85.35 150.31C85.5 154.5 89.1 158.06 95.85 156.72C102.6 155.38 114.43 149.78 116.71 146.07C119.4 141.69 116.8 128.1 110.96 128.19C107.11 128.25 102.88 129.62 95.32 135.86C88.72 141.3 85.19 145.8 85.36 150.3L85.35 150.31Z" fill="white"/>
<path d="M113.08 149.36C112.29 149.9 111.41 150.43 110.47 150.96C105.82 145.88 100.8 138.86 98.63 133.29C99.53 132.63 100.38 132.06 101.18 131.55C103.02 136.83 108.27 144.21 113.08 149.36Z" fill="#D0D0DB"/>
<path d="M216.69 185.71C223.29 185.23 236.07 184.17 240.31 186.34C242.56 187.49 244.85 191.52 242.64 198.84C240.56 205.76 237.4 206.01 233.29 206.01C228.87 206.01 213.1 206.01 213.1 206.01L216.67 185.72L216.69 185.71Z" fill="#4970DE"/>
<path d="M181.64 185.71C175.04 185.23 162.26 184.17 158.02 186.34C155.77 187.49 153.48 191.52 155.69 198.84C157.77 205.76 160.93 206.01 165.04 206.01C169.46 206.01 185.23 206.01 185.23 206.01L181.66 185.72L181.64 185.71Z" fill="#4970DE"/>
<path d="M186.81 154.33C186.81 154.33 179.89 160.78 173.73 172.32C168.11 182.83 172.25 187.58 178.08 187.77C187.04 188.07 193.69 186.49 193.69 186.49V155.4L186.81 154.32V154.33Z" fill="#6990FF"/>
<path d="M192.34 154.33C177.41 175.16 176.32 206 176.32 206H225.09C225.09 206 229.89 172.06 219.84 153.17L192.34 154.34V154.33Z" fill="url(#paint1_linear_3632_10061)"/>
<path d="M218.57 155.32C208.74 164.15 189.74 161.57 184.83 156.39C186.06 155.03 186.81 154.33 186.81 154.33L218.57 155.32Z" fill="#4970DE"/>
<path d="M253.88 178.07C256.9 175.79 257.18 171.06 254.5 167.51C251.82 163.96 247.2 162.93 244.18 165.21C238.85 169.23 236.21 178.33 237.64 180.23C239.08 182.13 248.55 182.09 253.88 178.07Z" fill="#4970DE"/>
<path d="M211.55 173.52C209.67 166.34 202.99 165.22 194.95 165.22C186.92 165.22 181.06 166.34 179.18 173.52C177.31 180.68 177.42 189.4 182.03 190.1C185.95 190.7 189.73 187.54 191.78 183.95L197.45 183.87C199.5 187.46 204.12 191.05 208.03 190.2C212.59 189.21 213.42 180.68 211.54 173.52H211.55Z" fill="white"/>
<path d="M200.39 166C200.07 165.06 202.02 163.85 204.67 164.31C207.32 164.77 209.8 166.96 210.07 169.39C210.28 171.2 208.24 170.31 205.84 169.24C202.36 167.7 200.62 166.64 200.4 165.99L200.39 166Z" fill="#29CC7A"/>
<path d="M189.65 165.9C189.95 164.95 187.98 163.78 185.34 164.3C182.7 164.82 180.27 167.05 180.04 169.49C179.87 171.31 181.89 170.37 184.27 169.26C187.71 167.65 189.44 166.55 189.65 165.91V165.9Z" fill="#29CC7A"/>
<path d="M223.16 153.17C223.16 153.17 230.45 158.84 232.89 170.5C235.33 182.17 232.84 188.6 218.32 188.5C206.57 188.42 203.99 185.42 203.82 181.25C203.65 177.08 206.98 173.33 216.56 172.12L217.39 154.22L223.16 153.16V153.17Z" fill="#6990FF"/>
<path d="M217.23 173.75C216.49 173.75 215.85 173.21 215.75 172.46C215.36 169.62 215.02 166.72 215.02 166.72C214.93 165.9 215.52 165.15 216.34 165.06C217.16 164.96 217.91 165.56 218 166.38C218 166.38 218.33 169.26 218.72 172.05C218.83 172.87 218.26 173.63 217.44 173.74C217.37 173.74 217.3 173.75 217.23 173.75Z" fill="#3D58D9"/>
<path d="M176.53 172.92C178.77 173.5 182.1 174.84 183.35 178.71C184.9 183.51 182.81 188.25 178.07 187.78L173.83 182.28L176.53 172.92Z" fill="#6990FF"/>
<path d="M214.32 177.92L215.61 172.25C215.61 172.25 219.19 171.77 220.77 172.02L223.15 177.08L214.32 177.92Z" fill="#6990FF"/>
<path d="M164.2 130.31C164.2 142.5 168.62 142.5 176.19 142.5V118.13C168.62 118.13 164.2 118.13 164.2 130.32V130.31Z" fill="#4970DE"/>
<path d="M202.64 108.33C226.75 108.33 235.71 110.9 235.71 132.35L235.95 137.77C235.73 156.55 219.84 156.66 199.51 156.21C181.05 155.81 170.86 153.8 170.86 132.35C171.06 112.75 178.53 108.33 202.64 108.33Z" fill="#6990FF"/>
<path d="M221.24 134.55C222.577 134.55 223.66 133.466 223.66 132.13C223.66 130.793 222.577 129.71 221.24 129.71C219.904 129.71 218.82 130.793 218.82 132.13C218.82 133.466 219.904 134.55 221.24 134.55Z" fill="#231F20"/>
<path d="M175.76 134.55C177.097 134.55 178.18 133.466 178.18 132.13C178.18 130.793 177.097 129.71 175.76 129.71C174.423 129.71 173.34 130.793 173.34 132.13C173.34 133.466 174.423 134.55 175.76 134.55Z" fill="#231F20"/>
<path d="M180.14 131.56C180.46 126.33 184.46 124.2 197.44 124.2C210.42 124.2 214.42 126.33 214.74 131.56C215.12 137.86 214.28 144.81 211.93 147.43C209.24 150.42 203.96 151.1 197.44 151.1C190.92 151.1 185.64 150.41 182.95 147.43C180.6 144.81 179.76 137.86 180.14 131.56Z" fill="#B7CCFF"/>
<path d="M187.42 139.98H190.76C192.05 139.98 193.09 141.02 193.09 142.31C193.09 143.6 192.05 144.64 190.76 144.64H187.42C186.13 144.64 185.09 143.6 185.09 142.31C185.09 141.02 186.13 139.98 187.42 139.98Z" fill="#6990FF"/>
<path d="M201.12 139.98H204.46C205.75 139.98 206.79 141.02 206.79 142.31C206.79 143.6 205.75 144.64 204.46 144.64H201.12C199.83 144.64 198.79 143.6 198.79 142.31C198.79 141.02 199.83 139.98 201.12 139.98Z" fill="#6990FF"/>
<path d="M246.24 130.31C246.24 142.5 241.82 142.5 234.25 142.5V130.31L233.21 118.12C240.24 118.12 246.24 118.12 246.24 130.31Z" fill="#6990FF"/>
<path d="M240.24 131.35C240.24 136.64 239.5 137.19 235.26 137.24C234.7 137.24 234.24 136.78 234.24 136.21V131.35V126.49C234.24 125.91 234.7 125.45 235.26 125.46C239.5 125.51 240.24 126.06 240.24 131.35Z" fill="#B7CCFF"/>
<path d="M219.67 148.88C218.95 148.88 218.31 148.35 218.19 147.62C218.06 146.8 218.62 146.03 219.44 145.9C221.51 145.57 222.54 144.6 223.46 143.24C223.92 142.55 224.85 142.37 225.54 142.83C226.23 143.29 226.41 144.22 225.95 144.91C224.9 146.46 223.27 148.32 219.92 148.85C219.84 148.86 219.76 148.87 219.68 148.87L219.67 148.88Z" fill="#231F20"/>
<path d="M196.64 108.58C196.64 108.58 199.88 106.9 203.39 104.08C207.18 101.04 210.39 98 215.14 98.73C221.98 99.79 221.33 103.88 217.97 107.14C216.47 108.6 214.38 109.82 212.5 110.33L196.64 108.58Z" fill="#57F287"/>
<path d="M203.64 111.25C202.97 111.25 202.36 110.8 202.19 110.12C201.99 109.32 202.47 108.5 203.27 108.3C203.71 108.19 214.01 105.39 215.36 94.8C215.46 93.98 216.22 93.4 217.04 93.5C217.86 93.6 218.44 94.36 218.34 95.18C216.73 107.82 204.54 111.08 204.02 111.21C203.9 111.24 203.77 111.26 203.65 111.26L203.64 111.25Z" fill="#008D3C"/>
<path d="M194.6 99.62C198.75 100 201.23 103.03 204.89 106.5C209.01 110.4 211.74 110.4 213.14 110.15C207.43 111.86 203.56 112.38 197.31 111.8C191.56 111.26 188.66 107.96 188.48 105.05C188.27 101.76 190.56 99.26 194.6 99.63V99.62Z" fill="#29CC7A"/>
<path d="M206.54 111.69C204.2 112.03 201.86 112.1 199.08 111.92C195 109.39 192.93 106.16 192.81 105.97C192.37 105.27 192.58 104.34 193.28 103.9C193.98 103.46 194.9 103.67 195.34 104.37C195.36 104.4 196.36 105.94 198.32 107.63C200.19 109.24 202.94 111 206.54 111.69Z" fill="#008D3C"/>
<path d="M143.6 206H98.19L90.19 166.54C89.92 165.22 90.93 163.99 92.28 163.99H135.08L143.6 206Z" fill="#66BCFF"/>
<path d="M148.88 206H142.98L134.34 163.99H138.5C139.51 163.99 140.38 164.7 140.59 165.69L148.88 206Z" fill="#3F99F2"/>
<path d="M145.37 201.03L143.75 206H183.32V204.22C183.32 202.46 181.89 201.02 180.12 201.02H145.37V201.03Z" fill="#3F99F2"/>
<path d="M121.29 184.33C119.09 183.08 117.37 181.05 116.56 178.77L115.18 174.88C115.11 174.69 114.92 174.55 114.73 174.55C114.54 174.55 114.4 174.69 114.41 174.88L114.62 178.77C114.74 181.05 113.85 183.08 112.16 184.33L111.72 184.65C111.62 184.72 111.58 184.85 111.61 184.98V185C111.64 185.13 111.73 185.26 111.86 185.33L112.43 185.65C114.63 186.9 116.35 188.93 117.16 191.21L118.54 195.1C118.61 195.29 118.8 195.43 118.99 195.43C119.18 195.43 119.32 195.29 119.31 195.1L119.1 191.21C118.98 188.93 119.87 186.9 121.56 185.65L122 185.33C122.1 185.26 122.14 185.13 122.11 185V184.98C122.08 184.85 121.99 184.72 121.86 184.65L121.29 184.33Z" fill="#8CD9FF"/>
<path d="M320.06 134.82C318.19 134.82 316.53 133.51 316.14 131.61C315.13 126.61 313.87 123.67 312.39 122.89C310.89 122.1 307.74 122.7 303.03 124.68C300.99 125.53 298.65 124.58 297.79 122.54C296.94 120.5 297.89 118.16 299.93 117.3C305.17 115.1 311.2 113.2 316.14 115.82C321.06 118.43 322.86 124.47 323.98 130.03C324.42 132.2 323.01 134.3 320.85 134.74C320.58 134.79 320.32 134.82 320.06 134.82Z" fill="#D0D0DB"/>
<path d="M309.07 122.72C308.17 122.87 307.12 123.16 305.94 123.56C304.6 121.43 304.26 118.6 305.15 116.07C305.24 115.81 305.34 115.57 305.45 115.33C307.03 114.9 308.63 114.61 310.2 114.57C308.81 115.15 308.2 116.43 307.98 117.07C307.27 119.08 307.72 121.34 309.07 122.72Z" fill="#B5B5C9"/>
<path d="M321.93 122.8C321.12 122.06 319.81 121.8 318.65 121.97C316.86 122.24 315.01 123.55 314.75 126.43C314.11 124.71 313.4 123.57 312.63 123.04C313.81 120.67 315.99 119.33 318.22 119C318.74 118.92 319.25 118.9 319.75 118.93C320.64 120.08 321.35 121.4 321.93 122.8Z" fill="#B5B5C9"/>
<path d="M329.701 140.258C332.047 135.714 330.266 130.128 325.722 127.781C321.177 125.435 315.592 127.217 313.245 131.761C310.899 136.305 312.68 141.891 317.224 144.237C321.769 146.584 327.354 144.802 329.701 140.258Z" fill="#6990FF"/>
<path d="M87.51 108.86C91.62 111.81 92.36 116 91.47 121.95C90.4 129.13 85.44 134.15 80.72 134.12C76 134.09 68.06 130.36 71.79 117.39C75.52 104.42 84.93 107.01 87.51 108.86Z" fill="#FF78B9"/>
<path d="M28.7 54.59C25.67 52.64 23.63 49.48 23.1 45.91L22.19 39.85C22.15 39.55 21.89 39.33 21.59 39.33C21.29 39.33 21.03 39.55 20.99 39.85L20.08 45.91C19.55 49.47 17.5 52.63 14.48 54.59L13.69 55.1C13.52 55.21 13.41 55.41 13.41 55.61V55.65C13.41 55.86 13.52 56.05 13.69 56.16L14.48 56.67C17.51 58.62 19.55 61.78 20.08 65.35L20.99 71.41C21.03 71.71 21.29 71.93 21.59 71.93C21.89 71.93 22.15 71.71 22.19 71.41L23.1 65.35C23.63 61.79 25.68 58.63 28.7 56.67L29.49 56.16C29.66 56.05 29.77 55.85 29.77 55.65V55.61C29.77 55.4 29.66 55.21 29.49 55.1L28.7 54.59Z" fill="#3F99F2"/>
<path d="M358.59 54.25C357.13 53.31 356.14 51.78 355.89 50.07L355.45 47.15C355.43 47.01 355.3 46.9 355.16 46.9C355.01 46.9 354.89 47.01 354.87 47.15L354.43 50.07C354.17 51.79 353.19 53.31 351.73 54.25L351.35 54.49C351.27 54.54 351.22 54.64 351.22 54.74V54.76C351.22 54.86 351.27 54.95 351.35 55.01L351.73 55.25C353.19 56.19 354.18 57.72 354.43 59.43L354.87 62.35C354.89 62.49 355.02 62.6 355.16 62.6C355.31 62.6 355.43 62.49 355.45 62.35L355.89 59.43C356.15 57.71 357.13 56.19 358.59 55.25L358.97 55.01C359.05 54.96 359.1 54.86 359.1 54.76V54.74C359.1 54.64 359.05 54.55 358.97 54.49L358.59 54.25Z" fill="#57F287"/>
<path d="M9.62001 82.61C7.71001 81.38 6.43001 79.39 6.09001 77.15L5.52001 73.33C5.49001 73.14 5.33001 73 5.14001 73C4.95001 73 4.79001 73.14 4.76001 73.33L4.19001 77.15C3.85001 79.39 2.57001 81.38 0.660006 82.61L0.170006 82.93C0.0600055 83 -0.00999451 83.12 -0.00999451 83.25V83.27C-0.00999451 83.4 0.0600055 83.52 0.170006 83.59L0.660006 83.91C2.57001 85.14 3.85001 87.13 4.19001 89.37L4.76001 93.19C4.79001 93.38 4.95001 93.52 5.14001 93.52C5.33001 93.52 5.49001 93.38 5.52001 93.19L6.09001 89.37C6.43001 87.13 7.71001 85.14 9.62001 83.91L10.11 83.59C10.22 83.52 10.29 83.4 10.29 83.27V83.25C10.29 83.12 10.22 83 10.11 82.93L9.62001 82.61Z" fill="#FFC619"/>
<path d="M179.75 32.83C178.29 31.89 177.3 30.36 177.05 28.65L176.61 25.73C176.59 25.59 176.46 25.48 176.32 25.48C176.17 25.48 176.05 25.59 176.03 25.73L175.59 28.65C175.33 30.37 174.35 31.89 172.89 32.83L172.51 33.07C172.43 33.12 172.38 33.22 172.38 33.32V33.34C172.38 33.44 172.43 33.53 172.51 33.59L172.89 33.83C174.35 34.77 175.34 36.3 175.59 38.01L176.03 40.93C176.05 41.07 176.18 41.18 176.32 41.18C176.47 41.18 176.59 41.07 176.61 40.93L177.05 38.01C177.31 36.29 178.29 34.77 179.75 33.83L180.13 33.59C180.21 33.54 180.26 33.44 180.26 33.34V33.32C180.26 33.22 180.21 33.13 180.13 33.07L179.75 32.83Z" fill="#808AFF"/>
<path d="M379.09 35.37C376.49 33.7 374.74 30.98 374.28 27.93L373.5 22.73C373.46 22.47 373.24 22.28 372.98 22.28C372.72 22.28 372.5 22.47 372.46 22.73L371.68 27.93C371.22 30.99 369.47 33.7 366.87 35.37L366.19 35.8C366.04 35.9 365.95 36.06 365.95 36.24V36.27C365.95 36.45 366.04 36.61 366.19 36.71L366.87 37.14C369.47 38.81 371.22 41.53 371.68 44.58L372.46 49.78C372.5 50.04 372.72 50.23 372.98 50.23C373.24 50.23 373.46 50.04 373.5 49.78L374.28 44.58C374.74 41.52 376.49 38.81 379.09 37.14L379.77 36.71C379.92 36.61 380.01 36.45 380.01 36.27V36.24C380.01 36.06 379.92 35.9 379.77 35.8L379.09 35.37Z" fill="#FF78B9"/>
<path d="M252.27 144.19C253.98 149.16 257.41 152.11 261.85 151.52C267.43 150.77 270.32 144.88 268.99 139.6C267.41 133.33 257.37 127.25 252.02 130.04C249.71 131.24 249.46 136.05 252.27 144.19Z" fill="#6990FF"/>
<path d="M252.79 145.85C249.27 138.63 249.69 131.36 251.62 130.85C254.06 130.21 259.37 136.79 261.51 141.21C263.46 145.24 263.68 149.39 261.84 150.82C260.2 152.1 255.56 151.54 252.78 145.85H252.79Z" fill="#5874F2"/>
<path d="M277.2 147.22C278.66 152.1 282.73 154.21 286.62 153.26C290.95 152.2 295.12 148.82 294.06 141.65C292.92 133.9 284.38 128.46 280 130.04C276.89 131.17 274.69 138.86 277.19 147.22H277.2Z" fill="#6990FF"/>
<path d="M276.56 145.62C275.27 138.57 277.11 131.76 279.51 131.32C282.37 130.79 287.45 136.21 288.76 142.85C289.95 148.91 287.74 153.06 284.81 153.45C281.88 153.84 277.68 151.73 276.56 145.62Z" fill="#5874F2"/>
</g>
<defs>
<linearGradient id="paint0_linear_3632_10061" x1="190" y1="51.67" x2="190" y2="271.53" gradientUnits="userSpaceOnUse">
<stop stop-color="#FFC619"/>
<stop offset="0.62" stop-color="#FF8C19"/>
</linearGradient>
<linearGradient id="paint1_linear_3632_10061" x1="200.98" y1="162.8" x2="201.21" y2="188.94" gradientUnits="userSpaceOnUse">
<stop offset="0.19" stop-color="#6990FF"/>
<stop offset="0.56" stop-color="#5279E7"/>
<stop offset="0.81" stop-color="#4970DE"/>
</linearGradient>
<clipPath id="clip0_3632_10061">
<rect width="380" height="206" fill="white"/>
</clipPath>
</defs>
</svg>
