<svg width="330" height="171" viewBox="0 0 330 171" fill="none" xmlns="http://www.w3.org/2000/svg">
<g clip-path="url(#clip0_11_170)">
<g opacity="0.7">
<path d="M276.5 116.597C255.524 116.597 238.465 99.4931 238.465 78.4739C238.465 57.4548 255.529 40.3456 276.5 40.3456C297.471 40.3456 314.535 57.4498 314.535 78.469C314.535 99.4881 297.476 116.597 276.5 116.597ZM276.5 42.3379C256.623 42.3379 240.453 58.5456 240.453 78.469C240.453 98.3923 256.623 114.6 276.5 114.6C296.377 114.6 312.547 98.3923 312.547 78.469C312.547 58.5456 296.377 42.3379 276.5 42.3379Z" fill="white"/>
<path d="M276.5 106.382C261.145 106.382 248.652 93.8598 248.652 78.469C248.652 63.0782 261.145 50.5563 276.5 50.5563C291.855 50.5563 304.348 63.0782 304.348 78.469C304.348 93.8598 291.855 106.382 276.5 106.382ZM276.5 52.0506C261.965 52.0506 250.143 63.9 250.143 78.469C250.143 93.0379 261.965 104.887 276.5 104.887C291.035 104.887 302.857 93.0379 302.857 78.469C302.857 63.9 291.035 52.0506 276.5 52.0506Z" fill="white"/>
<path d="M276.5 121.075C268.773 121.075 261.199 118.968 254.6 114.974L255.112 114.122C261.552 118.017 268.947 120.079 276.495 120.079C284.063 120.079 291.478 118.007 297.933 114.087L298.449 114.939C291.845 118.958 284.252 121.075 276.5 121.075Z" fill="white"/>
<path d="M276.5 106.382C261.145 106.382 248.652 93.8598 248.652 78.469C248.652 63.0782 261.145 50.5563 276.5 50.5563C291.855 50.5563 304.348 63.0782 304.348 78.469C304.348 93.8598 291.855 106.382 276.5 106.382ZM276.5 52.0506C261.965 52.0506 250.143 63.9 250.143 78.469C250.143 93.0379 261.965 104.887 276.5 104.887C291.035 104.887 302.857 93.0379 302.857 78.469C302.857 63.9 291.035 52.0506 276.5 52.0506Z" fill="white"/>
<path d="M276.5 106.133C261.284 106.133 248.9 93.7203 248.9 78.469C248.9 63.2176 261.284 50.8054 276.5 50.8054C291.716 50.8054 304.1 63.2176 304.1 78.469C304.1 93.7203 291.721 106.133 276.5 106.133ZM276.5 51.8015C261.831 51.8015 249.894 63.7655 249.894 78.469C249.894 93.1724 261.831 105.136 276.5 105.136C291.169 105.136 303.106 93.1724 303.106 78.469C303.106 63.7655 291.169 51.8015 276.5 51.8015Z" fill="white"/>
<path d="M262.656 100.581L244.096 132.81L245.818 133.806L264.377 101.577L262.656 100.581Z" fill="white"/>
<path d="M290.515 100.581L288.793 101.578L307.356 133.803L309.077 132.807L290.515 100.581Z" fill="white"/>
<path d="M276.5 43.8222C277.913 43.8222 279.059 42.6738 279.059 41.2571C279.059 39.8404 277.913 38.692 276.5 38.692C275.087 38.692 273.941 39.8404 273.941 41.2571C273.941 42.6738 275.087 43.8222 276.5 43.8222Z" fill="white"/>
<path d="M276.5 116.184C255.753 116.184 238.877 99.269 238.877 78.474C238.877 57.679 255.753 40.759 276.5 40.759C297.247 40.759 314.123 57.674 314.123 78.469C314.123 99.264 297.247 116.184 276.5 116.184ZM276.5 41.7552C256.3 41.7552 239.871 58.2268 239.871 78.469C239.871 98.7111 256.305 115.188 276.5 115.188C296.695 115.188 313.129 98.7161 313.129 78.474C313.129 58.2318 296.7 41.7552 276.5 41.7552Z" fill="white"/>
<path d="M276.997 78.469H276.003V115.681H276.997V78.469Z" fill="white"/>
<path d="M277.361 77.9718L275.64 78.968L294.203 111.193L295.924 110.197L277.361 77.9718Z" fill="white"/>
<path d="M276.745 78.0426L276.248 78.9053L308.399 97.5112L308.896 96.6485L276.745 78.0426Z" fill="white"/>
<path d="M313.626 77.9709H276.5V78.9671H313.626V77.9709Z" fill="white"/>
<path d="M308.408 59.4384L276.253 78.0406L276.75 78.9034L308.905 60.3012L308.408 59.4384Z" fill="white"/>
<path d="M294.63 45.9923L276.071 78.2215L276.932 78.7195L295.491 46.4903L294.63 45.9923Z" fill="white"/>
<path d="M276.997 41.2571H276.003V78.469H276.997V41.2571Z" fill="white"/>
<path d="M258.365 45.9962L257.505 46.4943L276.067 78.7198L276.928 78.2217L258.365 45.9962Z" fill="white"/>
<path d="M244.595 59.4313L244.098 60.294L276.249 78.8999L276.746 78.0373L244.595 59.4313Z" fill="white"/>
<path d="M276.5 77.9709H239.374V78.9671H276.5V77.9709Z" fill="white"/>
<path d="M276.252 78.0456L244.097 96.6478L244.594 97.5106L276.749 78.9084L276.252 78.0456Z" fill="white"/>
<path d="M275.64 77.9718L257.081 110.201L258.803 111.197L277.362 78.9678L275.64 77.9718Z" fill="white"/>
<path d="M276.5 118.251C277.913 118.251 279.059 117.102 279.059 115.686C279.059 114.269 277.913 113.121 276.5 113.121C275.087 113.121 273.941 114.269 273.941 115.686C273.941 117.102 275.087 118.251 276.5 118.251Z" fill="white"/>
<path d="M239.374 81.0341C240.788 81.0341 241.933 79.8856 241.933 78.4689C241.933 77.0523 240.788 75.9038 239.374 75.9038C237.961 75.9038 236.815 77.0523 236.815 78.4689C236.815 79.8856 237.961 81.0341 239.374 81.0341Z" fill="white"/>
<path d="M313.626 81.0341C315.039 81.0341 316.185 79.8856 316.185 78.4689C316.185 77.0523 315.039 75.9038 313.626 75.9038C312.212 75.9038 311.067 77.0523 311.067 78.4689C311.067 79.8856 312.212 81.0341 313.626 81.0341Z" fill="white"/>
<path d="M257.84 48.8628C259.254 48.8628 260.399 47.7144 260.399 46.2977C260.399 44.881 259.254 43.7325 257.84 43.7325C256.427 43.7325 255.281 44.881 255.281 46.2977C255.281 47.7144 256.427 48.8628 257.84 48.8628Z" fill="white"/>
<path d="M295.16 113.21C296.573 113.21 297.719 112.062 297.719 110.645C297.719 109.229 296.573 108.08 295.16 108.08C293.746 108.08 292.601 109.229 292.601 110.645C292.601 112.062 293.746 113.21 295.16 113.21Z" fill="white"/>
<path d="M244.403 99.7371C245.816 99.7371 246.962 98.5887 246.962 97.172C246.962 95.7553 245.816 94.6069 244.403 94.6069C242.99 94.6069 241.844 95.7553 241.844 97.172C241.844 98.5887 242.99 99.7371 244.403 99.7371Z" fill="white"/>
<path d="M308.597 62.336C310.01 62.336 311.156 61.1876 311.156 59.7709C311.156 58.3542 310.01 57.2057 308.597 57.2057C307.183 57.2057 306.038 58.3542 306.038 59.7709C306.038 61.1876 307.183 62.336 308.597 62.336Z" fill="white"/>
<path d="M295.16 48.8628C296.573 48.8628 297.719 47.7144 297.719 46.2977C297.719 44.881 296.573 43.7325 295.16 43.7325C293.746 43.7325 292.601 44.881 292.601 46.2977C292.601 47.7144 293.746 48.8628 295.16 48.8628Z" fill="white"/>
<path d="M257.84 113.21C259.254 113.21 260.399 112.062 260.399 110.645C260.399 109.229 259.254 108.08 257.84 108.08C256.427 108.08 255.281 109.229 255.281 110.645C255.281 112.062 256.427 113.21 257.84 113.21Z" fill="white"/>
<path d="M308.597 99.7371C310.01 99.7371 311.156 98.5887 311.156 97.172C311.156 95.7553 310.01 94.6069 308.597 94.6069C307.183 94.6069 306.038 95.7553 306.038 97.172C306.038 98.5887 307.183 99.7371 308.597 99.7371Z" fill="white"/>
<path d="M244.403 62.336C245.816 62.336 246.962 61.1876 246.962 59.7709C246.962 58.3542 245.816 57.2057 244.403 57.2057C242.99 57.2057 241.844 58.3542 241.844 59.7709C241.844 61.1876 242.99 62.336 244.403 62.336Z" fill="white"/>
<path d="M276.748 66.6295L269.786 73.6326V83.4897L276.748 90.4678L283.71 83.4648V73.6376L276.748 66.6295ZM280.227 82.0203L276.748 85.5219L273.27 82.0203V75.072L276.748 71.5705L280.227 75.072V82.0203Z" fill="#E876EE"/>
<path d="M276.748 66.6295V71.5705L280.227 75.072L283.706 73.6326L276.748 66.6295Z" fill="#F2B0F5"/>
<path d="M273.27 82.0203L269.791 83.4897L276.748 90.4678V85.5268L273.27 82.0203Z" fill="#D45FCD"/>
<path d="M273.27 75.077V82.0253L276.748 85.5268L280.227 82.0253V75.077L276.748 71.5755L273.27 75.077Z" fill="#F6D0F5"/>
<path d="M280.227 75.077V75.1069L273.295 82.0552H273.27V80.1625L279.278 74.1207L280.227 75.077Z" fill="white"/>
<path d="M280.227 77.7019V79.6245L275.566 84.3414L274.612 83.3552L280.227 77.7019Z" fill="white"/>
</g>
<path d="M173.635 132.685V138.22C173.635 138.355 173.77 138.45 173.915 138.425L189.645 135.655C189.895 135.61 189.895 135.285 189.645 135.24L173.915 132.47C173.77 132.455 173.635 132.555 173.635 132.685Z" fill="#8CD9FF"/>
<path d="M181.62 118.68V125.91C181.62 126.085 181.795 126.215 181.985 126.18L202.53 122.565C202.86 122.505 202.86 122.08 202.53 122.025L181.985 118.41C181.795 118.38 181.62 118.51 181.62 118.68Z" fill="#FFF2A6"/>
<path d="M168.675 105.55V113.56C168.675 113.75 168.85 113.895 169.04 113.86L189.585 109.855C189.915 109.79 189.915 109.32 189.585 109.255L169.04 105.25C168.85 105.215 168.675 105.36 168.675 105.55Z" fill="#91FFAD"/>
<path d="M168.175 150.125C167.76 150.125 167.425 149.79 167.425 149.375V104.68C167.425 104.265 167.76 103.93 168.175 103.93C168.59 103.93 168.925 104.265 168.925 104.68V149.375C168.925 149.79 168.59 150.125 168.175 150.125Z" fill="#2727AF"/>
<path d="M173.635 149.1C173.22 149.1 172.885 148.765 172.885 148.35V131.975C172.885 131.56 173.22 131.225 173.635 131.225C174.05 131.225 174.385 131.56 174.385 131.975V148.35C174.385 148.765 174.05 149.1 173.635 149.1Z" fill="#2727AF"/>
<path d="M181.54 163.26C181.125 163.26 180.79 162.925 180.79 162.51V117.815C180.79 117.4 181.125 117.065 181.54 117.065C181.955 117.065 182.29 117.4 182.29 117.815V162.51C182.29 162.925 181.955 163.26 181.54 163.26Z" fill="#2727AF"/>
<path d="M215.515 103.07C213.69 101.885 212.46 99.9751 212.14 97.8201L211.615 94.1451C211.545 93.9901 211.405 93.8801 211.24 93.8451C211.06 93.8401 210.9 93.9701 210.865 94.1451L210.34 97.8201C209.985 99.9601 208.765 101.86 206.965 103.07L206.44 103.37C206.345 103.44 206.29 103.55 206.29 103.67C206.295 103.81 206.35 103.94 206.44 104.045L206.965 104.345C208.76 105.525 209.985 107.4 210.34 109.52L210.865 113.195C210.865 113.42 211.015 113.495 211.24 113.495C211.42 113.5 211.58 113.37 211.615 113.195L212.14 109.52C212.46 107.385 213.69 105.5 215.515 104.345L215.965 104.045C216.115 103.98 216.205 103.83 216.19 103.67C216.19 103.52 216.115 103.445 215.965 103.37L215.515 103.07Z" fill="white"/>
<path d="M205.485 86.8149C204.085 85.9199 203.13 84.4749 202.86 82.8399L202.485 80.0649C202.485 79.8999 202.35 79.7649 202.185 79.7649C202.035 79.7649 201.96 79.9149 201.885 80.0649L201.51 82.8399C201.265 84.4899 200.305 85.9449 198.885 86.8149L198.51 87.1149C198.435 87.1149 198.435 87.1899 198.435 87.3399C198.43 87.4199 198.455 87.5049 198.51 87.5649L198.885 87.7899C200.31 88.6899 201.27 90.1699 201.51 91.8399L201.885 94.6149C201.96 94.7649 202.035 94.8399 202.185 94.8399C202.335 94.8399 202.485 94.7649 202.485 94.6149L202.86 91.8399C203.13 90.1799 204.08 88.7149 205.485 87.7899L205.86 87.5649C205.935 87.4899 206.01 87.4149 206.01 87.3399C206.01 87.1899 205.935 87.1149 205.86 87.1149L205.485 86.8149Z" fill="#EF913C"/>
<path d="M306.41 33.3149C305.07 32.4199 304.175 31.0049 303.935 29.4149L303.485 26.7899C303.485 26.6649 303.385 26.5649 303.26 26.5649C303.11 26.5649 302.96 26.6399 302.96 26.7899L302.585 29.4149C302.345 31.0049 301.45 32.4249 300.11 33.3149L299.735 33.5399C299.66 33.5399 299.585 33.6149 299.585 33.7649C299.585 33.8399 299.66 33.9149 299.735 33.9899L300.11 34.2149C301.46 35.0649 302.365 36.4599 302.585 38.0399L302.96 40.7399C302.96 40.8899 303.11 40.9649 303.26 40.9649C303.385 40.9649 303.485 40.8649 303.485 40.7399L303.935 38.0399C304.155 36.4599 305.06 35.0649 306.41 34.2149L306.71 33.9899C306.785 33.9149 306.86 33.8399 306.86 33.7649C306.86 33.6149 306.785 33.5399 306.71 33.5399L306.41 33.3149Z" fill="#84EE91"/>
<path d="M154.425 129.42C153 128.52 152.04 127.04 151.8 125.37L151.425 122.595C151.35 122.445 151.275 122.295 151.125 122.295C150.96 122.295 150.825 122.43 150.825 122.595L150.45 125.37C150.18 127.03 149.23 128.495 147.825 129.42L147.45 129.645C147.375 129.645 147.3 129.795 147.3 129.87C147.3 129.945 147.375 130.095 147.45 130.095L147.825 130.32C149.23 131.245 150.18 132.71 150.45 134.37L150.825 137.145C150.825 137.295 150.975 137.37 151.125 137.37C151.275 137.37 151.35 137.295 151.425 137.145L151.8 134.37C152.04 132.7 153 131.22 154.425 130.32L154.8 130.095C154.875 130.095 154.875 129.945 154.875 129.87C154.875 129.795 154.875 129.645 154.8 129.645L154.425 129.42Z" fill="#FFF2A6"/>
<path d="M319.775 9.72498V15.43C319.775 15.565 319.83 15.67 319.895 15.645L326.635 12.795C326.745 12.75 326.745 12.415 326.635 12.37L319.895 9.51998C319.83 9.48498 319.775 9.58998 319.775 9.72498Z" fill="#FF78B9"/>
<path d="M319.565 28.86C319.15 28.86 318.815 28.525 318.815 28.11V9.27002C318.815 8.85502 319.15 8.52002 319.565 8.52002C319.98 8.52002 320.315 8.85502 320.315 9.27002V28.11C320.315 28.525 319.98 28.86 319.565 28.86Z" fill="#2727AF"/>
<path d="M232.855 99.4349V105.14C232.855 105.275 232.91 105.38 232.975 105.355L239.715 102.505C239.825 102.46 239.825 102.125 239.715 102.08L232.975 99.2299C232.915 99.1949 232.855 99.2949 232.855 99.4349Z" fill="#91FFAD"/>
<path d="M232.645 118.57C232.23 118.57 231.895 118.235 231.895 117.82V98.98C231.895 98.565 232.23 98.23 232.645 98.23C233.06 98.23 233.395 98.565 233.395 98.98V117.82C233.395 118.23 233.06 118.57 232.645 118.57Z" fill="#2727AF"/>
<mask id="mask0_11_170" style="mask-type:luminance" maskUnits="userSpaceOnUse" x="-330" y="0" width="660" height="171">
<path d="M-314 0H314C322.835 0 330 7.165 330 16V155C330 163.835 322.835 171 314 171H-314C-322.835 171 -330 163.835 -330 155V16C-330 7.165 -322.835 0 -314 0Z" fill="white"/>
</mask>
<g mask="url(#mask0_11_170)">
<path d="M326.95 127.175V106.835C326.95 106.375 326.575 106 326.115 106H322.48V46.14H325.8C326.2 46.14 326.57 45.915 326.765 45.565C330.515 38.82 327.815 34.285 326.785 32.935C326.58 32.665 326.26 32.515 325.925 32.515H322.48V25.995H324.005C324.125 25.995 324.225 25.895 324.215 25.775C324.1 23.305 322.06 21.335 319.56 21.335C317.06 21.335 315.02 23.305 314.905 25.775C314.9 25.895 315 25.995 315.115 25.995H316.64V32.52H313.195C312.86 32.52 312.54 32.675 312.335 32.94C311.305 34.29 308.605 38.825 312.355 45.57C312.55 45.92 312.915 46.145 313.32 46.145H316.64V106H313.005C312.545 106 312.17 106.375 312.17 106.835V120.965H294.44C294.045 120.965 293.725 121.285 293.725 121.68V123.65C293.725 124.295 293.2 124.82 292.555 124.82H278.16C277.485 124.82 276.86 125.18 276.52 125.765L270.095 136.915C269.34 138.225 267.945 139.03 266.435 139.03H249.865L247.8 130.865C247.725 130.575 248.04 130.345 248.295 130.495L249.27 131.065C249.535 131.22 249.865 131.03 249.865 130.725V123.375C249.865 122.805 249.595 122.265 249.14 121.925L232.64 109.48L216.14 121.925C215.685 122.27 215.415 122.805 215.415 123.375V130.725C215.415 131.03 215.745 131.22 216.01 131.065L216.985 130.495C217.24 130.345 217.55 130.58 217.48 130.865L215.415 139.03C213.59 139.03 209.86 139.03 205.25 139.03C200.235 139.03 196.745 142.795 195.365 144.59C194.915 145.18 194.215 145.52 193.475 145.52H-158.225C-218.65 145.52 -237.285 116.155 -258.34 81.51C-279.395 46.865 -330 34.765 -330 34.765V171H309.35H312.175H326.95H330V127.175H326.95Z" fill="#2727AF"/>
</g>
<mask id="mask1_11_170" style="mask-type:luminance" maskUnits="userSpaceOnUse" x="-330" y="0" width="660" height="171">
<path d="M-314 0H314C322.835 0 330 7.165 330 16V155C330 163.835 322.835 171 314 171H-314C-322.835 171 -330 163.835 -330 155V16C-330 7.165 -322.835 0 -314 0Z" fill="white"/>
</mask>
<g mask="url(#mask1_11_170)">
<path d="M243.825 27.5401H280.88C280.88 27.5401 296.055 28.8301 297.015 19.6101C297.975 10.3901 289.185 9.70005 286.415 10.3901C283.98 10.9951 280.6 12.9201 278.885 15.1051C278.57 15.5051 278.01 15.5501 277.67 15.1701C276.85 14.2501 275.105 12.9251 271.935 13.0251C267.11 13.1751 263.01 17.8301 258.9 20.9201C254.225 24.4351 246.59 25.9951 243.74 26.9951C243.47 27.0951 243.535 27.5401 243.825 27.5401Z" fill="#8CD9FF"/>
</g>
<mask id="mask2_11_170" style="mask-type:luminance" maskUnits="userSpaceOnUse" x="-330" y="0" width="660" height="171">
<path d="M-314 0H314C322.835 0 330 7.165 330 16V155C330 163.835 322.835 171 314 171H-314C-322.835 171 -330 163.835 -330 155V16C-330 7.165 -322.835 0 -314 0Z" fill="white"/>
</mask>
<g mask="url(#mask2_11_170)">
<path d="M197.45 53.6699H218.145C218.15 53.6699 218.15 53.6699 218.155 53.6699C218.33 53.6849 227.625 54.4049 226.905 46.4699C226.2 38.7049 218.15 39.7349 213.635 43.1499C209.855 46.0099 202.585 51.9099 197.405 53.3549C197.22 53.4049 197.26 53.6699 197.45 53.6699Z" fill="#8CD9FF"/>
</g>
</g>
<defs>
<clipPath id="clip0_11_170">
<rect x="-330" width="660" height="171" rx="16" fill="white"/>
</clipPath>
</defs>
</svg>
